<?xml version="1.0" encoding="UTF-8"?>
<!DOCTYPE svg PUBLIC "-//W3C//DTD SVG 1.1//EN" "http://www.w3.org/Graphics/SVG/1.1/DTD/svg11.dtd">
<svg xmlns="http://www.w3.org/2000/svg" version="1.1" width="427px" height="427px" style="shape-rendering:geometricPrecision; text-rendering:geometricPrecision; image-rendering:optimizeQuality; fill-rule:evenodd; clip-rule:evenodd" xmlns:xlink="http://www.w3.org/1999/xlink">
<g><path style="opacity:0.997" fill="#9ca599" d="M 191.5,-0.5 C 205.833,-0.5 220.167,-0.5 234.5,-0.5C 324.703,12.5291 385.536,61.8624 417,147.5C 421.278,162.069 424.445,176.736 426.5,191.5C 426.5,205.833 426.5,220.167 426.5,234.5C 426.167,234.5 425.833,234.5 425.5,234.5C 425.542,223.834 423.708,213.5 420,203.5C 410.237,182.758 399.237,162.758 387,143.5C 383.067,137.566 377.9,133.066 371.5,130C 363.409,129.829 355.409,128.995 347.5,127.5C 338.336,123.079 329.336,123.579 320.5,129C 316.469,133.564 312.802,138.397 309.5,143.5C 301.536,149.724 293.702,156.058 286,162.5C 284.424,166.561 283.257,170.728 282.5,175C 283.672,178.849 283.672,182.682 282.5,186.5C 284.25,192.409 288.25,195.575 294.5,196C 300.077,196.742 305.41,196.242 310.5,194.5C 314.857,193.424 319.19,193.424 323.5,194.5C 336.517,201.022 348.183,209.522 358.5,220C 361.339,221.92 364.339,223.587 367.5,225C 368.097,226.062 368.43,227.228 368.5,228.5C 365.624,241.337 362.124,254.004 358,266.5C 351.921,279.494 343.755,290.994 333.5,301C 325.191,302.348 317.191,303.848 309.5,305.5C 308.833,305.5 308.5,305.833 308.5,306.5C 287.147,302.054 265.814,298.054 244.5,294.5C 245.469,292.337 246.302,290.004 247,287.5C 247.722,279.838 248.388,272.171 249,264.5C 264.548,244.425 267.215,222.758 257,199.5C 251.642,192.285 244.809,187.285 236.5,184.5C 236.335,176.138 236.668,167.805 237.5,159.5C 238.229,142.068 239.896,124.734 242.5,107.5C 241.178,107.67 240.011,107.337 239,106.5C 236.503,124.137 234.337,141.804 232.5,159.5C 231.962,166.822 231.629,174.155 231.5,181.5C 226.331,182.434 221.164,183.434 216,184.5C 212.118,183.904 208.284,183.071 204.5,182C 198.498,180.497 195.164,176.664 194.5,170.5C 199.375,159.977 197.542,150.644 189,142.5C 188.063,134.673 186.397,127.006 184,119.5C 176.543,108.353 166.043,102.853 152.5,103C 145.241,95.8957 136.575,93.5624 126.5,96C 122.211,96.8174 118.211,98.3174 114.5,100.5C 106.167,90.6643 98.0008,80.6643 90,70.5C 83.9648,64.2972 77.7981,58.2972 71.5,52.5C 105.861,22.3247 145.861,4.65803 191.5,-0.5 Z"/></g>
<g><path style="opacity:0.991" fill="#998781" d="M 71.5,52.5 C 77.7981,58.2972 83.9648,64.2972 90,70.5C 98.0008,80.6643 106.167,90.6643 114.5,100.5C 113.833,101.5 113.167,102.5 112.5,103.5C 112.167,103.5 111.833,103.5 111.5,103.5C 98.2488,86.5777 84.2488,70.2444 69.5,54.5C 69.8333,53.5 70.5,52.8333 71.5,52.5 Z"/></g>
<g><path style="opacity:0.98" fill="#fcfdfc" d="M 69.5,54.5 C 84.2488,70.2444 98.2488,86.5777 111.5,103.5C 108.317,105.01 104.984,106.343 101.5,107.5C 83.0662,114.05 66.0662,123.216 50.5,135C 40.3629,144.136 30.5295,153.636 21,163.5C 17.5658,168.051 14.3991,172.718 11.5,177.5C 6.9969,183.835 2.9969,190.502 -0.5,197.5C -0.5,195.5 -0.5,193.5 -0.5,191.5C 6.15372,137.191 29.487,91.5239 69.5,54.5 Z"/></g>
<g><path style="opacity:1" fill="#070405" d="M 194.5,170.5 C 193.5,170.5 192.5,170.5 191.5,170.5C 188.437,161.033 185.937,151.367 184,141.5C 179.074,126.905 169.574,116.405 155.5,110C 146.601,105.942 137.268,103.775 127.5,103.5C 123.018,103.034 119.018,104.034 115.5,106.5C 114.833,106.5 114.167,106.5 113.5,106.5C 113.443,105.391 113.11,104.391 112.5,103.5C 113.167,102.5 113.833,101.5 114.5,100.5C 118.211,98.3174 122.211,96.8174 126.5,96C 136.575,93.5624 145.241,95.8957 152.5,103C 166.043,102.853 176.543,108.353 184,119.5C 186.397,127.006 188.063,134.673 189,142.5C 197.542,150.644 199.375,159.977 194.5,170.5 Z"/></g>
<g><path style="opacity:1" fill="#8d5350" d="M 111.5,103.5 C 111.833,103.5 112.167,103.5 112.5,103.5C 113.11,104.391 113.443,105.391 113.5,106.5C 110.519,108.019 107.519,109.685 104.5,111.5C 103.306,110.728 102.306,109.728 101.5,108.5C 101.5,108.167 101.5,107.833 101.5,107.5C 104.984,106.343 108.317,105.01 111.5,103.5 Z"/></g>
<g><path style="opacity:1" fill="#d57872" d="M 127.5,103.5 C 127.461,104.583 127.127,105.583 126.5,106.5C 128.5,108.327 130.667,109.994 133,111.5C 133.591,112.483 133.257,113.15 132,113.5C 126.232,111.638 120.732,109.305 115.5,106.5C 119.018,104.034 123.018,103.034 127.5,103.5 Z"/></g>
<g><path style="opacity:1" fill="#faa992" d="M 127.5,103.5 C 137.268,103.775 146.601,105.942 155.5,110C 169.574,116.405 179.074,126.905 184,141.5C 185.937,151.367 188.437,161.033 191.5,170.5C 191.107,175.825 193.107,179.991 197.5,183C 201.699,184.964 206.032,186.464 210.5,187.5C 210.631,188.239 210.464,188.906 210,189.5C 203.981,195.02 197.814,200.353 191.5,205.5C 190.817,205.137 190.15,204.804 189.5,204.5C 190.368,202.598 191.368,200.765 192.5,199C 191.391,196.953 190.724,194.787 190.5,192.5C 192.94,190.427 193.106,188.094 191,185.5C 190.059,187.061 188.892,188.395 187.5,189.5C 180.381,181.112 171.715,174.945 161.5,171C 151.958,170.389 148.625,174.722 151.5,184C 152.449,184.617 153.282,184.451 154,183.5C 154.011,180.341 154.845,177.507 156.5,175C 157.833,174.333 159.167,174.333 160.5,175C 165.446,176.806 170.112,179.139 174.5,182C 178.398,185.729 182.065,189.562 185.5,193.5C 185.657,194.873 185.49,196.207 185,197.5C 181.123,200.521 178.289,204.188 176.5,208.5C 178.547,208.489 180.547,208.156 182.5,207.5C 186.145,208.489 186.145,209.989 182.5,212C 181.127,212.875 179.627,213.375 178,213.5C 174.551,212.442 171.218,211.108 168,209.5C 168.749,213.599 171.082,216.599 175,218.5C 181.445,217.372 186.612,214.372 190.5,209.5C 192.308,209.509 193.975,209.009 195.5,208C 202.363,201.967 209.03,195.801 215.5,189.5C 221.019,187.37 226.686,185.703 232.5,184.5C 233.5,184.5 234.5,184.5 235.5,184.5C 237.238,188.388 240.238,190.888 244.5,192C 256.584,202.799 261.417,216.299 259,232.5C 257.61,239.671 255.61,246.671 253,253.5C 249.596,257.394 246.429,261.394 243.5,265.5C 238.006,269.478 232.339,273.311 226.5,277C 219.881,280.405 212.881,281.739 205.5,281C 199.394,279.796 193.394,278.296 187.5,276.5C 185.151,274.659 182.485,273.326 179.5,272.5C 174.735,267.051 169.902,261.717 165,256.5C 164.228,256.645 163.561,256.978 163,257.5C 161.391,262.823 159.891,268.156 158.5,273.5C 129.879,277.012 101.212,280.345 72.5,283.5C 70.4104,283.427 68.4104,283.094 66.5,282.5C 66.0018,274.481 61.8352,269.148 54,266.5C 51.8082,250.311 42.6416,243.811 26.5,247C 23.9362,231.388 14.9362,225.221 -0.5,228.5C -0.5,218.167 -0.5,207.833 -0.5,197.5C 2.9969,190.502 6.9969,183.835 11.5,177.5C 11.7828,178.289 12.2828,178.956 13,179.5C 31.3574,154.102 54.1908,133.935 81.5,119C 87.2235,115.967 93.2235,113.801 99.5,112.5C 98.5985,115.872 98.5985,119.205 99.5,122.5C 101.948,119.264 103.615,115.598 104.5,111.5C 107.519,109.685 110.519,108.019 113.5,106.5C 114.167,106.5 114.833,106.5 115.5,106.5C 120.732,109.305 126.232,111.638 132,113.5C 133.257,113.15 133.591,112.483 133,111.5C 130.667,109.994 128.5,108.327 126.5,106.5C 127.127,105.583 127.461,104.583 127.5,103.5 Z"/></g>
<g><path style="opacity:1" fill="#383933" d="M 237.5,159.5 C 235.833,159.5 234.167,159.5 232.5,159.5C 234.337,141.804 236.503,124.137 239,106.5C 240.011,107.337 241.178,107.67 242.5,107.5C 239.896,124.734 238.229,142.068 237.5,159.5 Z"/></g>
<g><path style="opacity:1" fill="#d56f61" d="M 101.5,108.5 C 102.306,109.728 103.306,110.728 104.5,111.5C 103.615,115.598 101.948,119.264 99.5,122.5C 98.5985,119.205 98.5985,115.872 99.5,112.5C 100.167,111.167 100.833,109.833 101.5,108.5 Z"/></g>
<g><path style="opacity:1" fill="#100608" d="M 135.5,122.5 C 135.567,123.959 135.234,125.292 134.5,126.5C 128.954,122.867 123.287,122.7 117.5,126C 114.73,129.171 112.73,132.671 111.5,136.5C 103.143,118.015 108.81,111.848 128.5,118C 131.239,119.026 133.572,120.526 135.5,122.5 Z"/></g>
<g><path style="opacity:1" fill="#6f3933" d="M 135.5,122.5 C 137.754,123.124 139.421,124.457 140.5,126.5C 139.5,126.833 138.833,127.5 138.5,128.5C 137.167,127.833 135.833,127.167 134.5,126.5C 135.234,125.292 135.567,123.959 135.5,122.5 Z"/></g>
<g><path style="opacity:1" fill="#c66d5d" d="M 140.5,126.5 C 142.764,128.097 144.764,130.097 146.5,132.5C 142.838,133.565 140.171,132.232 138.5,128.5C 138.833,127.5 139.5,126.833 140.5,126.5 Z"/></g>
<g><path style="opacity:0.997" fill="#faae97" d="M 345.5,129.5 C 347.277,130.6 349.277,131.434 351.5,132C 357.5,132.333 363.5,132.667 369.5,133C 371.5,134 373.5,135 375.5,136C 380.765,141.263 385.265,147.096 389,153.5C 398.471,168.995 407.137,184.995 415,201.5C 417.776,208.269 419.776,215.269 421,222.5C 421.797,237.55 421.297,252.55 419.5,267.5C 408.169,312.521 384.502,349.521 348.5,378.5C 340.168,379.583 331.835,380.75 323.5,382C 322.663,383.011 322.33,384.178 322.5,385.5C 316.706,384.591 311.04,384.924 305.5,386.5C 304.833,386.5 304.167,386.5 303.5,386.5C 303.833,383.5 302.5,382.167 299.5,382.5C 299.768,380.901 299.434,379.568 298.5,378.5C 289.115,352.625 292.448,328.625 308.5,306.5C 308.5,305.833 308.833,305.5 309.5,305.5C 316.206,306.373 322.872,306.706 329.5,306.5C 326.48,311.88 323.98,317.546 322,323.5C 321.226,325.403 321.56,327.07 323,328.5C 326.847,320.807 330.68,313.14 334.5,305.5C 346.104,294.321 355.27,281.321 362,266.5C 366.131,253.308 369.631,239.975 372.5,226.5C 376.781,227.136 380.781,228.636 384.5,231C 387.227,231.818 389.894,231.652 392.5,230.5C 384.032,228.005 376.865,223.338 371,216.5C 367.266,208.698 362.766,201.365 357.5,194.5C 352.182,193.343 347.182,191.343 342.5,188.5C 340.512,189.289 340.179,190.455 341.5,192C 347.582,195.123 353.415,198.623 359,202.5C 362.017,209.209 365.517,215.543 369.5,221.5C 367.407,220.955 365.407,220.122 363.5,219C 355.123,211.621 346.456,204.621 337.5,198C 333.433,195.406 329.1,193.573 324.5,192.5C 324.291,190.286 325.124,188.619 327,187.5C 330.928,185.449 335.095,184.449 339.5,184.5C 340.174,179.849 342.841,178.349 347.5,180C 350.502,182.503 353.835,184.503 357.5,186C 358.915,189.751 361.415,192.584 365,194.5C 366.387,192.806 366.054,191.14 364,189.5C 363.51,188.207 363.343,186.873 363.5,185.5C 366.568,185.453 369.568,184.953 372.5,184C 373.833,183 373.833,182 372.5,181C 367.893,181.717 363.226,182.051 358.5,182C 353.956,179.293 349.289,176.793 344.5,174.5C 335.775,179.972 326.441,184.306 316.5,187.5C 310.228,187.117 304.228,185.617 298.5,183C 295.657,179.381 295.99,176.048 299.5,173C 304.949,170.592 310.616,168.925 316.5,168C 322.308,159.856 329.641,153.523 338.5,149C 344.842,147.402 351.175,147.568 357.5,149.5C 360.109,148.77 362.776,148.27 365.5,148C 367.107,146.951 367.773,145.451 367.5,143.5C 364.001,144.1 360.501,144.766 357,145.5C 346.187,142.735 336.354,144.569 327.5,151C 323.797,154.367 320.464,158.034 317.5,162C 310.986,164.966 304.319,167.633 297.5,170C 294.495,172.346 292.495,175.346 291.5,179C 290.207,179.49 288.873,179.657 287.5,179.5C 284.969,175.058 285.636,171.058 289.5,167.5C 296.727,166.055 303.394,163.222 309.5,159C 312.013,155.623 313.013,151.79 312.5,147.5C 315.151,141.991 318.484,136.824 322.5,132C 329.826,128.361 337.493,127.528 345.5,129.5 Z"/></g>
<g><path style="opacity:1" fill="#c78784" d="M 101.5,107.5 C 101.5,107.833 101.5,108.167 101.5,108.5C 100.833,109.833 100.167,111.167 99.5,112.5C 93.2235,113.801 87.2235,115.967 81.5,119C 54.1908,133.935 31.3574,154.102 13,179.5C 12.2828,178.956 11.7828,178.289 11.5,177.5C 14.3991,172.718 17.5658,168.051 21,163.5C 30.5295,153.636 40.3629,144.136 50.5,135C 66.0662,123.216 83.0662,114.05 101.5,107.5 Z"/></g>
<g><path style="opacity:1" fill="#957164" d="M 347.5,127.5 C 346.5,127.833 345.833,128.5 345.5,129.5C 337.493,127.528 329.826,128.361 322.5,132C 318.484,136.824 315.151,141.991 312.5,147.5C 309.144,146.862 307.144,148.196 306.5,151.5C 302.402,153.749 298.402,156.249 294.5,159C 292.859,160.129 291.859,161.629 291.5,163.5C 289.824,164.183 289.157,165.517 289.5,167.5C 285.636,171.058 284.969,175.058 287.5,179.5C 287.5,180.833 287.5,182.167 287.5,183.5C 285.887,186.547 286.554,189.047 289.5,191C 296.076,192.377 302.743,192.877 309.5,192.5C 309.328,193.492 309.662,194.158 310.5,194.5C 305.41,196.242 300.077,196.742 294.5,196C 288.25,195.575 284.25,192.409 282.5,186.5C 283.672,182.682 283.672,178.849 282.5,175C 283.257,170.728 284.424,166.561 286,162.5C 293.702,156.058 301.536,149.724 309.5,143.5C 312.802,138.397 316.469,133.564 320.5,129C 329.336,123.579 338.336,123.079 347.5,127.5 Z"/></g>
<g><path style="opacity:1" fill="#0b0405" d="M 80.5,147.5 C 80.5,148.833 80.5,150.167 80.5,151.5C 74.431,154.767 71.431,159.933 71.5,167C 71.8592,170.572 72.5259,174.072 73.5,177.5C 72.5,178.167 71.5,178.833 70.5,179.5C 64.2313,171.618 61.398,162.618 62,152.5C 63.1667,150 65,148.167 67.5,147C 71.8706,146.371 76.204,146.537 80.5,147.5 Z"/></g>
<g><path style="opacity:1" fill="#8c4f48" d="M 80.5,147.5 C 87.0853,148.682 87.0853,150.015 80.5,151.5C 80.5,150.167 80.5,148.833 80.5,147.5 Z"/></g>
<g><path style="opacity:1" fill="#efa295" d="M 306.5,151.5 C 307.417,153.662 307.417,155.995 306.5,158.5C 301.604,160.446 296.604,162.113 291.5,163.5C 291.859,161.629 292.859,160.129 294.5,159C 298.402,156.249 302.402,153.749 306.5,151.5 Z"/></g>
<g><path style="opacity:1" fill="#d1776b" d="M 312.5,147.5 C 313.013,151.79 312.013,155.623 309.5,159C 303.394,163.222 296.727,166.055 289.5,167.5C 289.157,165.517 289.824,164.183 291.5,163.5C 296.604,162.113 301.604,160.446 306.5,158.5C 307.417,155.995 307.417,153.662 306.5,151.5C 307.144,148.196 309.144,146.862 312.5,147.5 Z"/></g>
<g><path style="opacity:1" fill="#161412" d="M 232.5,159.5 C 234.167,159.5 235.833,159.5 237.5,159.5C 236.668,167.805 236.335,176.138 236.5,184.5C 236.167,184.5 235.833,184.5 235.5,184.5C 234.5,184.5 233.5,184.5 232.5,184.5C 231.89,183.609 231.557,182.609 231.5,181.5C 231.629,174.155 231.962,166.822 232.5,159.5 Z"/></g>
<g><path style="opacity:1" fill="#956559" d="M 347.5,127.5 C 355.409,128.995 363.409,129.829 371.5,130C 377.9,133.066 383.067,137.566 387,143.5C 399.237,162.758 410.237,182.758 420,203.5C 423.708,213.5 425.542,223.834 425.5,234.5C 425.019,245.896 423.019,256.896 419.5,267.5C 421.297,252.55 421.797,237.55 421,222.5C 419.776,215.269 417.776,208.269 415,201.5C 407.137,184.995 398.471,168.995 389,153.5C 385.265,147.096 380.765,141.263 375.5,136C 373.5,135 371.5,134 369.5,133C 363.5,132.667 357.5,132.333 351.5,132C 349.277,131.434 347.277,130.6 345.5,129.5C 345.833,128.5 346.5,127.833 347.5,127.5 Z"/></g>
<g><path style="opacity:1" fill="#d67460" d="M 190.5,192.5 C 188.708,192.366 187.042,192.699 185.5,193.5C 182.065,189.562 178.398,185.729 174.5,182C 170.112,179.139 165.446,176.806 160.5,175C 159.167,174.333 157.833,174.333 156.5,175C 154.845,177.507 154.011,180.341 154,183.5C 153.282,184.451 152.449,184.617 151.5,184C 148.625,174.722 151.958,170.389 161.5,171C 171.715,174.945 180.381,181.112 187.5,189.5C 188.892,188.395 190.059,187.061 191,185.5C 193.106,188.094 192.94,190.427 190.5,192.5 Z"/></g>
<g><path style="opacity:1" fill="#da6f5f" d="M 51.5,155.5 C 52.5853,169.015 58.0853,180.681 68,190.5C 68.4828,191.448 68.6495,192.448 68.5,193.5C 65.5611,193.082 63.2278,191.582 61.5,189C 54.1778,189.02 49.8445,185.353 48.5,178C 50.5938,176.745 51.5938,174.912 51.5,172.5C 50.2604,166.776 50.2604,161.109 51.5,155.5 Z"/></g>
<g><path style="opacity:1" fill="#cd7261" d="M 324.5,192.5 C 323.662,192.842 323.328,193.508 323.5,194.5C 319.19,193.424 314.857,193.424 310.5,194.5C 309.662,194.158 309.328,193.492 309.5,192.5C 309.586,191.504 309.252,190.671 308.5,190C 301.465,187.808 294.465,185.642 287.5,183.5C 287.5,182.167 287.5,180.833 287.5,179.5C 288.873,179.657 290.207,179.49 291.5,179C 292.495,175.346 294.495,172.346 297.5,170C 304.319,167.633 310.986,164.966 317.5,162C 320.464,158.034 323.797,154.367 327.5,151C 336.354,144.569 346.187,142.735 357,145.5C 360.501,144.766 364.001,144.1 367.5,143.5C 367.773,145.451 367.107,146.951 365.5,148C 362.776,148.27 360.109,148.77 357.5,149.5C 351.175,147.568 344.842,147.402 338.5,149C 329.641,153.523 322.308,159.856 316.5,168C 310.616,168.925 304.949,170.592 299.5,173C 295.99,176.048 295.657,179.381 298.5,183C 304.228,185.617 310.228,187.117 316.5,187.5C 326.441,184.306 335.775,179.972 344.5,174.5C 349.289,176.793 353.956,179.293 358.5,182C 363.226,182.051 367.893,181.717 372.5,181C 373.833,182 373.833,183 372.5,184C 369.568,184.953 366.568,185.453 363.5,185.5C 363.343,186.873 363.51,188.207 364,189.5C 366.054,191.14 366.387,192.806 365,194.5C 361.415,192.584 358.915,189.751 357.5,186C 353.835,184.503 350.502,182.503 347.5,180C 342.841,178.349 340.174,179.849 339.5,184.5C 335.095,184.449 330.928,185.449 327,187.5C 325.124,188.619 324.291,190.286 324.5,192.5 Z"/></g>
<g><path style="opacity:1" fill="#ad7464" d="M 191.5,170.5 C 192.5,170.5 193.5,170.5 194.5,170.5C 195.164,176.664 198.498,180.497 204.5,182C 208.284,183.071 212.118,183.904 216,184.5C 221.164,183.434 226.331,182.434 231.5,181.5C 231.557,182.609 231.89,183.609 232.5,184.5C 226.686,185.703 221.019,187.37 215.5,189.5C 214.615,186.677 212.948,186.01 210.5,187.5C 206.032,186.464 201.699,184.964 197.5,183C 193.107,179.991 191.107,175.825 191.5,170.5 Z"/></g>
<g><path style="opacity:1" fill="#884038" d="M 73.5,177.5 C 75.9772,181.101 78.4772,184.767 81,188.5C 81.1198,192.011 79.7865,192.345 77,189.5C 74.2166,186.553 72.0499,183.22 70.5,179.5C 71.5,178.833 72.5,178.167 73.5,177.5 Z"/></g>
<g><path style="opacity:1" fill="#f3aa9f" d="M 287.5,183.5 C 294.465,185.642 301.465,187.808 308.5,190C 309.252,190.671 309.586,191.504 309.5,192.5C 302.743,192.877 296.076,192.377 289.5,191C 286.554,189.047 285.887,186.547 287.5,183.5 Z"/></g>
<g><path style="opacity:1" fill="#c75d4e" d="M 190.5,192.5 C 190.724,194.787 191.391,196.953 192.5,199C 191.368,200.765 190.368,202.598 189.5,204.5C 189.629,206.216 189.962,207.883 190.5,209.5C 186.612,214.372 181.445,217.372 175,218.5C 171.082,216.599 168.749,213.599 168,209.5C 171.218,211.108 174.551,212.442 178,213.5C 179.627,213.375 181.127,212.875 182.5,212C 186.145,209.989 186.145,208.489 182.5,207.5C 180.547,208.156 178.547,208.489 176.5,208.5C 178.289,204.188 181.123,200.521 185,197.5C 185.49,196.207 185.657,194.873 185.5,193.5C 187.042,192.699 188.708,192.366 190.5,192.5 Z"/></g>
<g><path style="opacity:1" fill="#d87663" d="M 215.5,189.5 C 209.03,195.801 202.363,201.967 195.5,208C 193.975,209.009 192.308,209.509 190.5,209.5C 189.962,207.883 189.629,206.216 189.5,204.5C 190.15,204.804 190.817,205.137 191.5,205.5C 197.814,200.353 203.981,195.02 210,189.5C 210.464,188.906 210.631,188.239 210.5,187.5C 212.948,186.01 214.615,186.677 215.5,189.5 Z"/></g>
<g><path style="opacity:1" fill="#ce715f" d="M 372.5,226.5 C 370.777,225.395 369.777,223.728 369.5,221.5C 365.517,215.543 362.017,209.209 359,202.5C 353.415,198.623 347.582,195.123 341.5,192C 340.179,190.455 340.512,189.289 342.5,188.5C 347.182,191.343 352.182,193.343 357.5,194.5C 362.766,201.365 367.266,208.698 371,216.5C 376.865,223.338 384.032,228.005 392.5,230.5C 389.894,231.652 387.227,231.818 384.5,231C 380.781,228.636 376.781,227.136 372.5,226.5 Z"/></g>
<g><path style="opacity:1" fill="#d9715e" d="M 118.5,194.5 C 136.446,192.892 151.279,198.892 163,212.5C 163.805,217.926 162.639,222.926 159.5,227.5C 161.762,230.087 161.929,232.754 160,235.5C 156.156,237.5 153.656,240.5 152.5,244.5C 157.496,245.166 161.829,247.166 165.5,250.5C 164.667,250.833 163.833,251.167 163,251.5C 143.877,244.4 126.044,246.9 109.5,259C 108.365,259.749 107.365,259.583 106.5,258.5C 108.356,255.81 110.689,253.644 113.5,252C 117.953,250.274 122.286,248.274 126.5,246C 141.637,243.218 152.471,234.718 159,220.5C 159.667,218.5 159.667,216.5 159,214.5C 148.634,202.212 135.467,196.879 119.5,198.5C 118.537,202.797 118.537,207.13 119.5,211.5C 116.022,210.417 114.355,207.917 114.5,204C 114.899,200.377 116.232,197.21 118.5,194.5 Z"/></g>
<g><path style="opacity:0.986" fill="#030103" d="M 66.5,282.5 C 65.962,284.117 65.6287,285.784 65.5,287.5C 62.341,288.582 59.6743,290.416 57.5,293C 50.3966,296.676 43.8966,295.843 38,290.5C 37.6174,291.056 37.1174,291.389 36.5,291.5C 36.4226,290.25 35.756,289.417 34.5,289C 27.3905,288.174 20.3905,288.674 13.5,290.5C 6.61451,272.291 1.94785,253.625 -0.5,234.5C -0.5,232.5 -0.5,230.5 -0.5,228.5C 14.9362,225.221 23.9362,231.388 26.5,247C 42.6416,243.811 51.8082,250.311 54,266.5C 61.8352,269.148 66.0018,274.481 66.5,282.5 Z"/></g>
<g><path style="opacity:1" fill="#e27f67" d="M 168.5,241.5 C 176.773,241.152 184.44,243.152 191.5,247.5C 192.386,248.325 192.719,249.325 192.5,250.5C 187.435,249.312 182.435,247.812 177.5,246C 173.179,245.501 168.846,245.334 164.5,245.5C 164.5,244.5 164.5,243.5 164.5,242.5C 166.099,242.768 167.432,242.434 168.5,241.5 Z"/></g>
<g><path style="opacity:1" fill="#dd735c" d="M 111.5,244.5 C 113.466,245.255 113.8,246.421 112.5,248C 105.609,250.112 99.2755,253.279 93.5,257.5C 92.1515,255.389 92.4848,253.555 94.5,252C 100.032,248.894 105.699,246.394 111.5,244.5 Z"/></g>
<g><path style="opacity:1" fill="#d46b59" d="M 179.5,272.5 C 176.833,272.5 174.167,272.5 171.5,272.5C 171.896,267.516 169.562,264.849 164.5,264.5C 163.322,267.523 163.322,270.523 164.5,273.5C 162.5,273.5 160.5,273.5 158.5,273.5C 159.891,268.156 161.391,262.823 163,257.5C 163.561,256.978 164.228,256.645 165,256.5C 169.902,261.717 174.735,267.051 179.5,272.5 Z"/></g>
<g><path style="opacity:1" fill="#f29b8a" d="M 171.5,272.5 C 169.139,272.674 166.806,273.007 164.5,273.5C 163.322,270.523 163.322,267.523 164.5,264.5C 169.562,264.849 171.896,267.516 171.5,272.5 Z"/></g>
<g><path style="opacity:1" fill="#b06e62" d="M 235.5,184.5 C 235.833,184.5 236.167,184.5 236.5,184.5C 244.809,187.285 251.642,192.285 257,199.5C 267.215,222.758 264.548,244.425 249,264.5C 248.388,272.171 247.722,279.838 247,287.5C 246.302,290.004 245.469,292.337 244.5,294.5C 236.21,299.655 227.21,303.155 217.5,305C 215.244,307.083 213.244,309.25 211.5,311.5C 209.992,313.181 208.992,315.181 208.5,317.5C 207.292,316.766 205.959,316.433 204.5,316.5C 205.819,314.532 205.819,312.532 204.5,310.5C 205.128,308.742 206.128,307.242 207.5,306C 218.73,301.7 229.896,297.2 241,292.5C 242.859,285.772 244.359,278.939 245.5,272C 245.257,271.098 244.923,270.265 244.5,269.5C 245.471,268.038 245.138,266.705 243.5,265.5C 246.429,261.394 249.596,257.394 253,253.5C 255.61,246.671 257.61,239.671 259,232.5C 261.417,216.299 256.584,202.799 244.5,192C 240.238,190.888 237.238,188.388 235.5,184.5 Z"/></g>
<g><path style="opacity:0.997" fill="#faa48d" d="M 244.5,269.5 C 244.923,270.265 245.257,271.098 245.5,272C 244.359,278.939 242.859,285.772 241,292.5C 229.896,297.2 218.73,301.7 207.5,306C 206.128,307.242 205.128,308.742 204.5,310.5C 205.819,312.532 205.819,314.532 204.5,316.5C 201.022,320.629 196.689,323.629 191.5,325.5C 183.736,328.363 175.736,330.53 167.5,332C 156.833,332.9 146.166,333.734 135.5,334.5C 122.314,334.753 108.98,333.92 95.5,332C 89.2205,330.838 84.5538,327.671 81.5,322.5C 80.5,322.5 79.5,322.5 78.5,322.5C 77.9916,325.852 76.6582,328.852 74.5,331.5C 69.5222,334.696 64.5222,337.696 59.5,340.5C 54.4411,341.681 49.4411,343.014 44.5,344.5C 36.0216,334.897 29.0216,324.23 23.5,312.5C 28.8437,312.334 34.1771,312.501 39.5,313C 40.4162,313.374 41.2496,313.874 42,314.5C 43.033,320.253 46.1996,324.253 51.5,326.5C 52.5827,325.635 52.7494,324.635 52,323.5C 48.6798,321.359 46.8464,318.359 46.5,314.5C 53.8189,315.355 61.1522,315.521 68.5,315C 69.8146,313.605 69.4812,312.605 67.5,312C 55.3063,311.052 43.1396,309.886 31,308.5C 27.9792,308.502 25.1459,308.836 22.5,309.5C 19.6589,305.151 17.3255,300.484 15.5,295.5C 22.6156,294.636 29.6156,293.303 36.5,291.5C 37.1174,291.389 37.6174,291.056 38,290.5C 43.8966,295.843 50.3966,296.676 57.5,293C 59.6743,290.416 62.341,288.582 65.5,287.5C 66.2646,287.923 67.0979,288.257 68,288.5C 94.7782,285.339 121.612,282.672 148.5,280.5C 149.218,282.137 149.384,283.803 149,285.5C 145.282,289.273 141.116,292.44 136.5,295C 135.663,296.011 135.33,297.178 135.5,298.5C 138.682,297.97 141.682,296.97 144.5,295.5C 144.5,296.5 144.5,297.5 144.5,298.5C 145.5,298.5 146.5,298.5 147.5,298.5C 147.421,295.729 147.921,293.063 149,290.5C 152.962,287.726 155.462,284.059 156.5,279.5C 165.138,278.66 173.805,278.327 182.5,278.5C 183.075,284.242 186.242,286.909 192,286.5C 200.711,284.887 209.544,284.054 218.5,284C 221.713,283.394 224.713,282.227 227.5,280.5C 228.522,280.855 229.189,281.522 229.5,282.5C 226.636,284.023 224.969,286.357 224.5,289.5C 228.381,286.729 232.715,284.729 237.5,283.5C 237.5,281.833 237.5,280.167 237.5,278.5C 237.185,273.478 239.519,270.478 244.5,269.5 Z"/></g>
<g><path style="opacity:1" fill="#d67465" d="M 243.5,265.5 C 245.138,266.705 245.471,268.038 244.5,269.5C 239.519,270.478 237.185,273.478 237.5,278.5C 234.55,279.308 231.883,280.642 229.5,282.5C 229.189,281.522 228.522,280.855 227.5,280.5C 224.713,282.227 221.713,283.394 218.5,284C 209.544,284.054 200.711,284.887 192,286.5C 186.242,286.909 183.075,284.242 182.5,278.5C 184.781,278.923 186.448,278.256 187.5,276.5C 193.394,278.296 199.394,279.796 205.5,281C 212.881,281.739 219.881,280.405 226.5,277C 232.339,273.311 238.006,269.478 243.5,265.5 Z"/></g>
<g><path style="opacity:1" fill="#2f1111" d="M 171.5,272.5 C 174.167,272.5 176.833,272.5 179.5,272.5C 182.485,273.326 185.151,274.659 187.5,276.5C 186.448,278.256 184.781,278.923 182.5,278.5C 173.805,278.327 165.138,278.66 156.5,279.5C 153.721,279.279 151.054,279.612 148.5,280.5C 121.612,282.672 94.7782,285.339 68,288.5C 67.0979,288.257 66.2646,287.923 65.5,287.5C 65.6287,285.784 65.962,284.117 66.5,282.5C 68.4104,283.094 70.4104,283.427 72.5,283.5C 101.212,280.345 129.879,277.012 158.5,273.5C 160.5,273.5 162.5,273.5 164.5,273.5C 166.806,273.007 169.139,272.674 171.5,272.5 Z"/></g>
<g><path style="opacity:1" fill="#9a6e61" d="M 324.5,192.5 C 329.1,193.573 333.433,195.406 337.5,198C 346.456,204.621 355.123,211.621 363.5,219C 365.407,220.122 367.407,220.955 369.5,221.5C 369.777,223.728 370.777,225.395 372.5,226.5C 369.631,239.975 366.131,253.308 362,266.5C 355.27,281.321 346.104,294.321 334.5,305.5C 332.708,305.366 331.042,305.699 329.5,306.5C 322.872,306.706 316.206,306.373 309.5,305.5C 317.191,303.848 325.191,302.348 333.5,301C 343.755,290.994 351.921,279.494 358,266.5C 362.124,254.004 365.624,241.337 368.5,228.5C 368.43,227.228 368.097,226.062 367.5,225C 364.339,223.587 361.339,221.92 358.5,220C 348.183,209.522 336.517,201.022 323.5,194.5C 323.328,193.508 323.662,192.842 324.5,192.5 Z"/></g>
<g><path style="opacity:1" fill="#a94c42" d="M 237.5,278.5 C 237.5,280.167 237.5,281.833 237.5,283.5C 232.715,284.729 228.381,286.729 224.5,289.5C 224.969,286.357 226.636,284.023 229.5,282.5C 231.883,280.642 234.55,279.308 237.5,278.5 Z"/></g>
<g><path style="opacity:1" fill="#ce6858" d="M 156.5,279.5 C 155.462,284.059 152.962,287.726 149,290.5C 147.921,293.063 147.421,295.729 147.5,298.5C 146.5,298.5 145.5,298.5 144.5,298.5C 144.5,297.5 144.5,296.5 144.5,295.5C 141.682,296.97 138.682,297.97 135.5,298.5C 135.33,297.178 135.663,296.011 136.5,295C 141.116,292.44 145.282,289.273 149,285.5C 149.384,283.803 149.218,282.137 148.5,280.5C 151.054,279.612 153.721,279.279 156.5,279.5 Z"/></g>
<g><path style="opacity:0.994" fill="#bf5e53" d="M 36.5,291.5 C 29.6156,293.303 22.6156,294.636 15.5,295.5C 14.5592,293.95 13.8925,292.284 13.5,290.5C 20.3905,288.674 27.3905,288.174 34.5,289C 35.756,289.417 36.4226,290.25 36.5,291.5 Z"/></g>
<g><path style="opacity:1" fill="#d97461" d="M 191.5,290.5 C 194.247,290.187 196.914,290.52 199.5,291.5C 198.619,292.971 197.286,293.804 195.5,294C 191.167,294.667 186.833,294.667 182.5,294C 182.043,293.586 181.709,293.086 181.5,292.5C 184.977,291.833 188.311,291.166 191.5,290.5 Z"/></g>
<g><path style="opacity:1" fill="#fbfdfb" d="M 244.5,294.5 C 265.814,298.054 287.147,302.054 308.5,306.5C 292.448,328.625 289.115,352.625 298.5,378.5C 297.448,378.649 296.448,378.483 295.5,378C 280.496,362.153 264.163,347.986 246.5,335.5C 243.138,331.939 240.138,328.105 237.5,324C 235.765,323.349 234.098,323.515 232.5,324.5C 225.236,320.379 218.236,316.046 211.5,311.5C 213.244,309.25 215.244,307.083 217.5,305C 227.21,303.155 236.21,299.655 244.5,294.5 Z"/></g>
<g><path style="opacity:1" fill="#d87260" d="M 206.5,294.5 C 207.675,294.281 208.675,294.614 209.5,295.5C 202.015,302.244 193.348,306.911 183.5,309.5C 183.33,308.178 183.663,307.011 184.5,306C 192.336,302.917 199.67,299.084 206.5,294.5 Z"/></g>
<g><path style="opacity:1" fill="#db7b66" d="M 334.5,305.5 C 330.68,313.14 326.847,320.807 323,328.5C 321.56,327.07 321.226,325.403 322,323.5C 323.98,317.546 326.48,311.88 329.5,306.5C 331.042,305.699 332.708,305.366 334.5,305.5 Z"/></g>
<g><path style="opacity:0.988" fill="#d96d56" d="M 23.5,312.5 C 22.8902,311.609 22.5569,310.609 22.5,309.5C 25.1459,308.836 27.9792,308.502 31,308.5C 43.1396,309.886 55.3063,311.052 67.5,312C 69.4812,312.605 69.8146,313.605 68.5,315C 61.1522,315.521 53.8189,315.355 46.5,314.5C 46.8464,318.359 48.6798,321.359 52,323.5C 52.7494,324.635 52.5827,325.635 51.5,326.5C 46.1996,324.253 43.033,320.253 42,314.5C 41.2496,313.874 40.4162,313.374 39.5,313C 34.1771,312.501 28.8437,312.334 23.5,312.5 Z"/></g>
<g><path style="opacity:0.993" fill="#fcfbfb" d="M 208.5,317.5 C 213.657,318.041 218.657,319.874 223.5,323C 249.297,340.604 273.297,360.604 295.5,383C 296.448,383.483 297.448,383.649 298.5,383.5C 298.738,385.404 299.738,386.738 301.5,387.5C 304.549,392.549 308.549,396.549 313.5,399.5C 313.833,400.167 314.167,400.833 314.5,401.5C 289.296,414.796 262.629,423.129 234.5,426.5C 221.167,426.5 207.833,426.5 194.5,426.5C 194.652,417.295 190.319,411.462 181.5,409C 176.743,408.19 172.076,408.524 167.5,410C 163.11,412.854 158.776,415.687 154.5,418.5C 153.041,418.567 151.708,418.234 150.5,417.5C 153.908,409.685 157.574,402.019 161.5,394.5C 162.89,393.101 163.89,391.434 164.5,389.5C 165.683,388.496 167.016,387.662 168.5,387C 182.421,386.538 193.754,381.038 202.5,370.5C 204.062,366.242 203.728,362.242 201.5,358.5C 199.424,355.298 196.424,353.965 192.5,354.5C 186.106,355.685 179.773,357.185 173.5,359C 167.5,359.333 161.5,359.667 155.5,360C 147.669,363.158 141.669,368.492 137.5,376C 131.882,374.309 126.048,373.142 120,372.5C 114.9,372.138 110.733,373.805 107.5,377.5C 104.251,382.757 100.585,387.757 96.5,392.5C 95.2905,392.068 94.2905,391.401 93.5,390.5C 94.692,382.702 95.692,374.869 96.5,367C 95.7264,360.123 93.0597,354.123 88.5,349C 79.1807,344.67 73.014,347.504 70,357.5C 69.5008,362.155 69.3342,366.821 69.5,371.5C 63.5,366.167 57.8333,360.5 52.5,354.5C 55.0134,350.142 58.0134,346.142 61.5,342.5C 67.1122,340.361 72.4455,337.694 77.5,334.5C 93.0539,340.597 108.721,346.764 124.5,353C 145.25,357.29 165.917,356.79 186.5,351.5C 186.833,350.333 187.167,349.167 187.5,348C 185.945,342.617 185.278,337.117 185.5,331.5C 187.102,329.926 189.102,329.259 191.5,329.5C 195.474,330.621 199.14,332.454 202.5,335C 207.154,336.607 211.82,338.107 216.5,339.5C 217.833,339.5 219.167,339.5 220.5,339.5C 220.5,338.5 220.5,337.5 220.5,336.5C 219.5,336.5 218.5,336.5 217.5,336.5C 209.369,332.572 206.369,326.238 208.5,317.5 Z"/></g>
<g><path style="opacity:1" fill="#0b0507" d="M 204.5,316.5 C 205.959,316.433 207.292,316.766 208.5,317.5C 206.369,326.238 209.369,332.572 217.5,336.5C 217.443,337.609 217.11,338.609 216.5,339.5C 211.82,338.107 207.154,336.607 202.5,335C 199.14,332.454 195.474,330.621 191.5,329.5C 191.5,328.167 191.5,326.833 191.5,325.5C 196.689,323.629 201.022,320.629 204.5,316.5 Z"/></g>
<g><path style="opacity:1" fill="#bca5aa" d="M 96.5,335.5 C 96.5106,337.017 97.1772,338.184 98.5,339C 111.903,345.412 125.903,349.912 140.5,352.5C 140.5,351.5 140.5,350.5 140.5,349.5C 138.692,349.509 137.025,349.009 135.5,348C 134.269,346.817 134.269,345.651 135.5,344.5C 137.795,345.432 140.129,346.265 142.5,347C 149.826,347.5 157.159,347.666 164.5,347.5C 164.5,346.167 164.5,344.833 164.5,343.5C 166.288,343.785 167.955,343.452 169.5,342.5C 170.388,337.299 173.388,334.632 178.5,334.5C 177.888,338.163 177.721,341.83 178,345.5C 179.605,348.274 181.772,348.94 184.5,347.5C 182.834,342.701 181.167,338.034 179.5,333.5C 181.102,331.926 183.102,331.259 185.5,331.5C 185.278,337.117 185.945,342.617 187.5,348C 187.167,349.167 186.833,350.333 186.5,351.5C 165.917,356.79 145.25,357.29 124.5,353C 108.721,346.764 93.0539,340.597 77.5,334.5C 78.1481,332.914 78.6481,331.247 79,329.5C 79.5613,328.978 80.228,328.645 81,328.5C 85.9401,331.557 91.1068,333.891 96.5,335.5 Z"/></g>
<g><path style="opacity:1" fill="#b96b64" d="M 191.5,325.5 C 191.5,326.833 191.5,328.167 191.5,329.5C 189.102,329.259 187.102,329.926 185.5,331.5C 183.102,331.259 181.102,331.926 179.5,333.5C 178.833,333.5 178.5,333.833 178.5,334.5C 173.388,334.632 170.388,337.299 169.5,342.5C 167.955,343.452 166.288,343.785 164.5,343.5C 162.694,342.976 161.028,342.309 159.5,341.5C 159.97,340.307 160.97,339.64 162.5,339.5C 166.907,341.671 169.24,340.338 169.5,335.5C 165.085,335.305 160.751,335.805 156.5,337C 154.676,337.66 153.343,338.827 152.5,340.5C 146.809,339.628 141.142,338.628 135.5,337.5C 135.5,336.5 135.5,335.5 135.5,334.5C 146.166,333.734 156.833,332.9 167.5,332C 175.736,330.53 183.736,328.363 191.5,325.5 Z"/></g>
<g><path style="opacity:1" fill="#c47d75" d="M 135.5,334.5 C 135.5,335.5 135.5,336.5 135.5,337.5C 122.441,337.791 109.441,337.124 96.5,335.5C 91.1068,333.891 85.9401,331.557 81,328.5C 80.228,328.645 79.5613,328.978 79,329.5C 78.6481,331.247 78.1481,332.914 77.5,334.5C 72.4455,337.694 67.1122,340.361 61.5,342.5C 61.1667,341.5 60.5,340.833 59.5,340.5C 64.5222,337.696 69.5222,334.696 74.5,331.5C 76.6582,328.852 77.9916,325.852 78.5,322.5C 79.5,322.5 80.5,322.5 81.5,322.5C 84.5538,327.671 89.2205,330.838 95.5,332C 108.98,333.92 122.314,334.753 135.5,334.5 Z"/></g>
<g><path style="opacity:1" fill="#ede4e6" d="M 179.5,333.5 C 181.167,338.034 182.834,342.701 184.5,347.5C 181.772,348.94 179.605,348.274 178,345.5C 177.721,341.83 177.888,338.163 178.5,334.5C 178.5,333.833 178.833,333.5 179.5,333.5 Z"/></g>
<g><path style="opacity:1" fill="#f8f6f5" d="M 96.5,335.5 C 109.441,337.124 122.441,337.791 135.5,337.5C 141.142,338.628 146.809,339.628 152.5,340.5C 154.607,341.468 156.941,341.802 159.5,341.5C 161.028,342.309 162.694,342.976 164.5,343.5C 164.5,344.833 164.5,346.167 164.5,347.5C 157.159,347.666 149.826,347.5 142.5,347C 140.129,346.265 137.795,345.432 135.5,344.5C 134.269,345.651 134.269,346.817 135.5,348C 137.025,349.009 138.692,349.509 140.5,349.5C 140.5,350.5 140.5,351.5 140.5,352.5C 125.903,349.912 111.903,345.412 98.5,339C 97.1772,338.184 96.5106,337.017 96.5,335.5 Z"/></g>
<g><path style="opacity:1" fill="#dc8e86" d="M 159.5,341.5 C 156.941,341.802 154.607,341.468 152.5,340.5C 153.343,338.827 154.676,337.66 156.5,337C 160.751,335.805 165.085,335.305 169.5,335.5C 169.24,340.338 166.907,341.671 162.5,339.5C 160.97,339.64 159.97,340.307 159.5,341.5 Z"/></g>
<g><path style="opacity:1" fill="#b6aaad" d="M 211.5,311.5 C 218.236,316.046 225.236,320.379 232.5,324.5C 234.098,323.515 235.765,323.349 237.5,324C 240.138,328.105 243.138,331.939 246.5,335.5C 264.163,347.986 280.496,362.153 295.5,378C 296.448,378.483 297.448,378.649 298.5,378.5C 299.434,379.568 299.768,380.901 299.5,382.5C 299.5,383.167 299.167,383.5 298.5,383.5C 297.448,383.649 296.448,383.483 295.5,383C 273.297,360.604 249.297,340.604 223.5,323C 218.657,319.874 213.657,318.041 208.5,317.5C 208.992,315.181 209.992,313.181 211.5,311.5 Z"/></g>
<g><path style="opacity:1" fill="#635d5e" d="M 217.5,336.5 C 218.5,336.5 219.5,336.5 220.5,336.5C 220.5,337.5 220.5,338.5 220.5,339.5C 219.167,339.5 217.833,339.5 216.5,339.5C 217.11,338.609 217.443,337.609 217.5,336.5 Z"/></g>
<g><path style="opacity:0.974" fill="#9c5244" d="M 59.5,340.5 C 60.5,340.833 61.1667,341.5 61.5,342.5C 58.0134,346.142 55.0134,350.142 52.5,354.5C 49.4838,351.48 46.8171,348.146 44.5,344.5C 49.4411,343.014 54.4411,341.681 59.5,340.5 Z"/></g>
<g><path style="opacity:0.988" fill="#faa18a" d="M 90.5,388.5 C 84.5487,384.55 78.8821,380.217 73.5,375.5C 71.7924,367.994 72.2924,360.661 75,353.5C 79.9538,349.323 84.6204,349.657 89,354.5C 90.1965,357.089 91.1965,359.756 92,362.5C 92.494,371.226 91.994,379.893 90.5,388.5 Z"/></g>
<g><path style="opacity:0.952" fill="#c07873" d="M 93.5,390.5 C 92.2905,390.068 91.2905,389.401 90.5,388.5C 91.994,379.893 92.494,371.226 92,362.5C 91.1965,359.756 90.1965,357.089 89,354.5C 84.6204,349.657 79.9538,349.323 75,353.5C 72.2924,360.661 71.7924,367.994 73.5,375.5C 71.8333,374.5 70.5,373.167 69.5,371.5C 69.3342,366.821 69.5008,362.155 70,357.5C 73.014,347.504 79.1807,344.67 88.5,349C 93.0597,354.123 95.7264,360.123 96.5,367C 95.692,374.869 94.692,382.702 93.5,390.5 Z"/></g>
<g><path style="opacity:0.997" fill="#fba791" d="M 201.5,358.5 C 203.728,362.242 204.062,366.242 202.5,370.5C 201.262,369.588 199.928,369.421 198.5,370C 193.457,376.529 186.79,380.529 178.5,382C 171.866,383.78 165.2,383.947 158.5,382.5C 158.351,383.552 158.517,384.552 159,385.5C 161.167,386.488 163,387.821 164.5,389.5C 163.89,391.434 162.89,393.101 161.5,394.5C 161.217,393.711 160.717,393.044 160,392.5C 154.517,399.798 150.351,407.798 147.5,416.5C 144.037,415.901 140.704,414.901 137.5,413.5C 138.032,405.778 139.032,398.112 140.5,390.5C 139.836,386.524 139.503,382.524 139.5,378.5C 145.822,365.339 156.155,360.172 170.5,363C 177.721,361.371 184.887,359.537 192,357.5C 195.073,357.523 197.74,358.523 200,360.5C 200.717,359.956 201.217,359.289 201.5,358.5 Z"/></g>
<g><path style="opacity:1" fill="#c6817d" d="M 201.5,358.5 C 201.217,359.289 200.717,359.956 200,360.5C 197.74,358.523 195.073,357.523 192,357.5C 184.887,359.537 177.721,361.371 170.5,363C 156.155,360.172 145.822,365.339 139.5,378.5C 138.504,378.586 137.671,378.252 137,377.5C 136.148,378.571 135.315,379.571 134.5,380.5C 132.507,378.837 130.174,377.67 127.5,377C 122.833,376.333 118.167,376.333 113.5,377C 111.671,377.273 110.171,378.107 109,379.5C 108.283,378.956 107.783,378.289 107.5,377.5C 110.733,373.805 114.9,372.138 120,372.5C 126.048,373.142 131.882,374.309 137.5,376C 141.669,368.492 147.669,363.158 155.5,360C 161.5,359.667 167.5,359.333 173.5,359C 179.773,357.185 186.106,355.685 192.5,354.5C 196.424,353.965 199.424,355.298 201.5,358.5 Z"/></g>
<g><path style="opacity:0.989" fill="#faa18a" d="M 134.5,380.5 C 135.711,383.515 136.378,386.682 136.5,390C 134.993,397.423 134.326,404.923 134.5,412.5C 126.712,409.106 119.045,405.439 111.5,401.5C 112.465,396.557 113.132,391.557 113.5,386.5C 112.5,386.5 111.5,386.5 110.5,386.5C 110.803,389.588 109.47,391.254 106.5,391.5C 106.5,393.833 106.5,396.167 106.5,398.5C 102.882,396.863 99.5488,394.863 96.5,392.5C 100.585,387.757 104.251,382.757 107.5,377.5C 107.783,378.289 108.283,378.956 109,379.5C 110.171,378.107 111.671,377.273 113.5,377C 118.167,376.333 122.833,376.333 127.5,377C 130.174,377.67 132.507,378.837 134.5,380.5 Z"/></g>
<g><path style="opacity:0.985" fill="#d36d5f" d="M 139.5,378.5 C 139.503,382.524 139.836,386.524 140.5,390.5C 139.032,398.112 138.032,405.778 137.5,413.5C 136.609,412.89 135.609,412.557 134.5,412.5C 134.326,404.923 134.993,397.423 136.5,390C 136.378,386.682 135.711,383.515 134.5,380.5C 135.315,379.571 136.148,378.571 137,377.5C 137.671,378.252 138.504,378.586 139.5,378.5 Z"/></g>
<g><path style="opacity:0.96" fill="#fb241e" d="M 348.5,378.5 C 338.241,387.639 326.908,395.306 314.5,401.5C 314.167,400.833 313.833,400.167 313.5,399.5C 314.338,399.158 314.672,398.492 314.5,397.5C 318.669,394.495 321.335,390.495 322.5,385.5C 322.33,384.178 322.663,383.011 323.5,382C 331.835,380.75 340.168,379.583 348.5,378.5 Z"/></g>
<g><path style="opacity:1" fill="#ca837b" d="M 202.5,370.5 C 193.754,381.038 182.421,386.538 168.5,387C 167.016,387.662 165.683,388.496 164.5,389.5C 163,387.821 161.167,386.488 159,385.5C 158.517,384.552 158.351,383.552 158.5,382.5C 165.2,383.947 171.866,383.78 178.5,382C 186.79,380.529 193.457,376.529 198.5,370C 199.928,369.421 201.262,369.588 202.5,370.5 Z"/></g>
<g><path style="opacity:1" fill="#866264" d="M 299.5,382.5 C 302.5,382.167 303.833,383.5 303.5,386.5C 302.508,386.328 301.842,386.662 301.5,387.5C 299.738,386.738 298.738,385.404 298.5,383.5C 299.167,383.5 299.5,383.167 299.5,382.5 Z"/></g>
<g><path style="opacity:1" fill="#f9f8f7" d="M 322.5,385.5 C 321.335,390.495 318.669,394.495 314.5,397.5C 311.122,394.124 308.122,390.457 305.5,386.5C 311.04,384.924 316.706,384.591 322.5,385.5 Z"/></g>
<g><path style="opacity:1" fill="#da6c59" d="M 111.5,401.5 C 109.632,400.737 107.965,399.737 106.5,398.5C 106.5,396.167 106.5,393.833 106.5,391.5C 109.47,391.254 110.803,389.588 110.5,386.5C 111.5,386.5 112.5,386.5 113.5,386.5C 113.132,391.557 112.465,396.557 111.5,401.5 Z"/></g>
<g><path style="opacity:1" fill="#b6aaac" d="M 303.5,386.5 C 304.167,386.5 304.833,386.5 305.5,386.5C 308.122,390.457 311.122,394.124 314.5,397.5C 314.672,398.492 314.338,399.158 313.5,399.5C 308.549,396.549 304.549,392.549 301.5,387.5C 301.842,386.662 302.508,386.328 303.5,386.5 Z"/></g>
<g><path style="opacity:1" fill="#cf857c" d="M 161.5,394.5 C 157.574,402.019 153.908,409.685 150.5,417.5C 149.209,417.737 148.209,417.404 147.5,416.5C 150.351,407.798 154.517,399.798 160,392.5C 160.717,393.044 161.217,393.711 161.5,394.5 Z"/></g>
<g><path style="opacity:0.978" fill="#f2ad9f" d="M 194.5,426.5 C 193.5,426.5 192.5,426.5 191.5,426.5C 178.96,424.858 166.626,422.192 154.5,418.5C 158.776,415.687 163.11,412.854 167.5,410C 172.076,408.524 176.743,408.19 181.5,409C 190.319,411.462 194.652,417.295 194.5,426.5 Z"/></g>
</svg>
